<mxfile host="65bd71144e">
    <diagram id="DWkpdxEylmJv1sXTrojj" name="Page-3">
        <mxGraphModel dx="1404" dy="1198" grid="1" gridSize="10" guides="1" tooltips="1" connect="1" arrows="1" fold="1" page="1" pageScale="1" pageWidth="1169" pageHeight="827" math="0" shadow="0">
            <root>
                <mxCell id="0"/>
                <mxCell id="1" parent="0"/>
                <mxCell id="40cWnrxc0xa72bpg9dQa-1" value="Executable Header" style="whiteSpace=wrap;html=1;fontSize=30;" vertex="1" parent="1">
                    <mxGeometry x="80" y="370" width="320" height="60" as="geometry"/>
                </mxCell>
                <mxCell id="40cWnrxc0xa72bpg9dQa-2" value="Text" style="whiteSpace=wrap;html=1;fontSize=30;" vertex="1" parent="1">
                    <mxGeometry x="80" y="430" width="320" height="60" as="geometry"/>
                </mxCell>
                <mxCell id="40cWnrxc0xa72bpg9dQa-3" value="Data" style="whiteSpace=wrap;html=1;fontSize=30;" vertex="1" parent="1">
                    <mxGeometry x="80" y="490" width="320" height="60" as="geometry"/>
                </mxCell>
                <mxCell id="40cWnrxc0xa72bpg9dQa-4" value="BSS" style="whiteSpace=wrap;html=1;fontSize=30;" vertex="1" parent="1">
                    <mxGeometry x="80" y="550" width="320" height="60" as="geometry"/>
                </mxCell>
                <mxCell id="40cWnrxc0xa72bpg9dQa-5" value="RO (Read-only)" style="whiteSpace=wrap;html=1;fontSize=30;" vertex="1" parent="1">
                    <mxGeometry x="80" y="600" width="320" height="60" as="geometry"/>
                </mxCell>
                <mxCell id="40cWnrxc0xa72bpg9dQa-6" value="Symbol Table" style="whiteSpace=wrap;html=1;fontSize=30;" vertex="1" parent="1">
                    <mxGeometry x="80" y="660" width="320" height="60" as="geometry"/>
                </mxCell>
                <mxCell id="40cWnrxc0xa72bpg9dQa-7" value="Compiled Binary" style="text;strokeColor=none;align=center;fillColor=none;html=1;verticalAlign=middle;whiteSpace=wrap;rounded=0;fontSize=30;fontStyle=1" vertex="1" parent="1">
                    <mxGeometry x="110" y="320" width="260" height="30" as="geometry"/>
                </mxCell>
                <mxCell id="40cWnrxc0xa72bpg9dQa-8" value="Hard Disk" style="text;strokeColor=none;align=center;fillColor=none;html=1;verticalAlign=middle;whiteSpace=wrap;rounded=0;fontSize=30;fontStyle=1" vertex="1" parent="1">
                    <mxGeometry x="150" y="740" width="180" height="30" as="geometry"/>
                </mxCell>
                <mxCell id="40cWnrxc0xa72bpg9dQa-9" value="" style="whiteSpace=wrap;html=1;fontSize=30;" vertex="1" parent="1">
                    <mxGeometry x="584" y="90" width="456" height="660" as="geometry"/>
                </mxCell>
                <mxCell id="40cWnrxc0xa72bpg9dQa-10" value="" style="edgeStyle=none;orthogonalLoop=1;jettySize=auto;html=1;fontSize=30;curved=1;endArrow=none;endFill=0;strokeWidth=3;entryX=0.89;entryY=0.77;entryDx=0;entryDy=0;entryPerimeter=0;" edge="1" parent="1" target="40cWnrxc0xa72bpg9dQa-9">
                    <mxGeometry width="80" relative="1" as="geometry">
                        <mxPoint x="650" y="598.46" as="sourcePoint"/>
                        <mxPoint x="730" y="598.46" as="targetPoint"/>
                        <Array as="points"/>
                    </mxGeometry>
                </mxCell>
                <mxCell id="40cWnrxc0xa72bpg9dQa-21" style="edgeStyle=orthogonalEdgeStyle;curved=1;html=1;strokeWidth=3;fontSize=30;endArrow=classic;endFill=1;" edge="1" parent="1" source="40cWnrxc0xa72bpg9dQa-11">
                    <mxGeometry relative="1" as="geometry">
                        <mxPoint x="730" y="600" as="targetPoint"/>
                    </mxGeometry>
                </mxCell>
                <mxCell id="40cWnrxc0xa72bpg9dQa-11" value="PCB" style="whiteSpace=wrap;html=1;fontSize=30;" vertex="1" parent="1">
                    <mxGeometry x="640" y="640" width="180" height="60" as="geometry"/>
                </mxCell>
                <mxCell id="40cWnrxc0xa72bpg9dQa-13" value="RAM" style="text;strokeColor=none;align=center;fillColor=none;html=1;verticalAlign=middle;whiteSpace=wrap;rounded=0;fontSize=30;fontStyle=1" vertex="1" parent="1">
                    <mxGeometry x="584" y="30" width="260" height="30" as="geometry"/>
                </mxCell>
                <mxCell id="40cWnrxc0xa72bpg9dQa-14" value="Process" style="text;strokeColor=none;align=center;fillColor=none;html=1;verticalAlign=middle;whiteSpace=wrap;rounded=0;fontSize=30;fontStyle=1" vertex="1" parent="1">
                    <mxGeometry x="594" y="110" width="260" height="30" as="geometry"/>
                </mxCell>
                <mxCell id="40cWnrxc0xa72bpg9dQa-15" value="RO (Read-only)" style="whiteSpace=wrap;html=1;fontSize=30;" vertex="1" parent="1">
                    <mxGeometry x="620" y="364" width="320" height="60" as="geometry"/>
                </mxCell>
                <mxCell id="40cWnrxc0xa72bpg9dQa-16" value="BSS" style="whiteSpace=wrap;html=1;fontSize=30;" vertex="1" parent="1">
                    <mxGeometry x="620" y="304" width="320" height="60" as="geometry"/>
                </mxCell>
                <mxCell id="40cWnrxc0xa72bpg9dQa-17" value="Data" style="whiteSpace=wrap;html=1;fontSize=30;" vertex="1" parent="1">
                    <mxGeometry x="620" y="244" width="320" height="60" as="geometry"/>
                </mxCell>
                <mxCell id="40cWnrxc0xa72bpg9dQa-18" value="Text" style="whiteSpace=wrap;html=1;fontSize=30;" vertex="1" parent="1">
                    <mxGeometry x="620" y="184" width="320" height="60" as="geometry"/>
                </mxCell>
                <mxCell id="40cWnrxc0xa72bpg9dQa-12" style="edgeStyle=orthogonalEdgeStyle;curved=1;html=1;entryX=0;entryY=0.75;entryDx=0;entryDy=0;strokeWidth=3;fontSize=30;endArrow=classic;endFill=1;" edge="1" parent="1" source="40cWnrxc0xa72bpg9dQa-3" target="40cWnrxc0xa72bpg9dQa-18">
                    <mxGeometry relative="1" as="geometry"/>
                </mxCell>
                <mxCell id="40cWnrxc0xa72bpg9dQa-19" value="Stack" style="whiteSpace=wrap;html=1;fontSize=30;" vertex="1" parent="1">
                    <mxGeometry x="620" y="424" width="320" height="60" as="geometry"/>
                </mxCell>
                <mxCell id="40cWnrxc0xa72bpg9dQa-20" value="Heap" style="whiteSpace=wrap;html=1;fontSize=30;" vertex="1" parent="1">
                    <mxGeometry x="620" y="480" width="320" height="60" as="geometry"/>
                </mxCell>
            </root>
        </mxGraphModel>
    </diagram>
    <diagram id="Rn-9Y-AttjRREhdXPGNV" name="Page-2">
        <mxGraphModel dx="1177" dy="1540" grid="1" gridSize="10" guides="1" tooltips="1" connect="1" arrows="1" fold="1" page="1" pageScale="1" pageWidth="1169" pageHeight="827" math="0" shadow="0">
            <root>
                <mxCell id="0"/>
                <mxCell id="1" parent="0"/>
                <mxCell id="E6y0boajHcAVDFcBQ8BV-6" style="edgeStyle=orthogonalEdgeStyle;curved=1;html=1;entryX=0;entryY=0.5;entryDx=0;entryDy=0;fontSize=30;" edge="1" parent="1" source="E6y0boajHcAVDFcBQ8BV-1" target="E6y0boajHcAVDFcBQ8BV-2">
                    <mxGeometry relative="1" as="geometry"/>
                </mxCell>
                <mxCell id="E6y0boajHcAVDFcBQ8BV-1" value="Source Code" style="whiteSpace=wrap;html=1;fontSize=33;fontStyle=1" vertex="1" parent="1">
                    <mxGeometry x="380" y="270" width="150" height="206" as="geometry"/>
                </mxCell>
                <mxCell id="E6y0boajHcAVDFcBQ8BV-7" style="edgeStyle=orthogonalEdgeStyle;curved=1;html=1;entryX=0;entryY=0.5;entryDx=0;entryDy=0;fontSize=30;" edge="1" parent="1" source="E6y0boajHcAVDFcBQ8BV-2" target="E6y0boajHcAVDFcBQ8BV-3">
                    <mxGeometry relative="1" as="geometry"/>
                </mxCell>
                <mxCell id="E6y0boajHcAVDFcBQ8BV-2" value="Explanded Source Code" style="whiteSpace=wrap;html=1;fontSize=28;fontStyle=1" vertex="1" parent="1">
                    <mxGeometry x="750" y="270" width="150" height="206" as="geometry"/>
                </mxCell>
                <mxCell id="E6y0boajHcAVDFcBQ8BV-8" style="edgeStyle=orthogonalEdgeStyle;curved=1;html=1;fontSize=30;" edge="1" parent="1" source="E6y0boajHcAVDFcBQ8BV-3" target="E6y0boajHcAVDFcBQ8BV-4">
                    <mxGeometry relative="1" as="geometry"/>
                </mxCell>
                <mxCell id="E6y0boajHcAVDFcBQ8BV-3" value="Assembly Code" style="whiteSpace=wrap;html=1;fontSize=30;fontStyle=1" vertex="1" parent="1">
                    <mxGeometry x="1110" y="270" width="150" height="206" as="geometry"/>
                </mxCell>
                <mxCell id="E6y0boajHcAVDFcBQ8BV-9" style="edgeStyle=orthogonalEdgeStyle;curved=1;html=1;entryX=0;entryY=0.5;entryDx=0;entryDy=0;fontSize=30;" edge="1" parent="1" source="E6y0boajHcAVDFcBQ8BV-4" target="E6y0boajHcAVDFcBQ8BV-5">
                    <mxGeometry relative="1" as="geometry"/>
                </mxCell>
                <mxCell id="E6y0boajHcAVDFcBQ8BV-4" value="Machine Code" style="whiteSpace=wrap;html=1;fontSize=33;fontStyle=1" vertex="1" parent="1">
                    <mxGeometry x="1470" y="270" width="150" height="206" as="geometry"/>
                </mxCell>
                <mxCell id="E6y0boajHcAVDFcBQ8BV-5" value="Machine&lt;br&gt;Code" style="whiteSpace=wrap;html=1;fontSize=33;fontStyle=1" vertex="1" parent="1">
                    <mxGeometry x="1830" y="270" width="150" height="206" as="geometry"/>
                </mxCell>
                <mxCell id="E6y0boajHcAVDFcBQ8BV-10" value="Preprocessor" style="text;strokeColor=none;align=center;fillColor=none;html=1;verticalAlign=middle;whiteSpace=wrap;rounded=0;fontSize=30;fontStyle=1" vertex="1" parent="1">
                    <mxGeometry x="530" y="310" width="210" height="30" as="geometry"/>
                </mxCell>
                <mxCell id="E6y0boajHcAVDFcBQ8BV-13" value="Compiler" style="text;strokeColor=none;align=center;fillColor=none;html=1;verticalAlign=middle;whiteSpace=wrap;rounded=0;fontSize=30;fontStyle=1" vertex="1" parent="1">
                    <mxGeometry x="910" y="310" width="210" height="30" as="geometry"/>
                </mxCell>
                <mxCell id="E6y0boajHcAVDFcBQ8BV-14" value="Assembler" style="text;strokeColor=none;align=center;fillColor=none;html=1;verticalAlign=middle;whiteSpace=wrap;rounded=0;fontSize=30;fontStyle=1" vertex="1" parent="1">
                    <mxGeometry x="1260" y="310" width="210" height="30" as="geometry"/>
                </mxCell>
                <mxCell id="E6y0boajHcAVDFcBQ8BV-15" value="Llinker" style="text;strokeColor=none;align=center;fillColor=none;html=1;verticalAlign=middle;whiteSpace=wrap;rounded=0;fontSize=30;fontStyle=1" vertex="1" parent="1">
                    <mxGeometry x="1620" y="310" width="210" height="30" as="geometry"/>
                </mxCell>
                <mxCell id="E6y0boajHcAVDFcBQ8BV-16" value=".c" style="text;strokeColor=none;align=center;fillColor=none;html=1;verticalAlign=middle;whiteSpace=wrap;rounded=0;fontSize=30;fontStyle=1" vertex="1" parent="1">
                    <mxGeometry x="410" y="220" width="90" height="30" as="geometry"/>
                </mxCell>
                <mxCell id="E6y0boajHcAVDFcBQ8BV-17" value=".i" style="text;strokeColor=none;align=center;fillColor=none;html=1;verticalAlign=middle;whiteSpace=wrap;rounded=0;fontSize=30;fontStyle=1" vertex="1" parent="1">
                    <mxGeometry x="780" y="220" width="90" height="30" as="geometry"/>
                </mxCell>
                <mxCell id="E6y0boajHcAVDFcBQ8BV-18" value=".s" style="text;strokeColor=none;align=center;fillColor=none;html=1;verticalAlign=middle;whiteSpace=wrap;rounded=0;fontSize=30;fontStyle=1" vertex="1" parent="1">
                    <mxGeometry x="1140" y="220" width="90" height="30" as="geometry"/>
                </mxCell>
                <mxCell id="E6y0boajHcAVDFcBQ8BV-19" value=".o" style="text;strokeColor=none;align=center;fillColor=none;html=1;verticalAlign=middle;whiteSpace=wrap;rounded=0;fontSize=30;fontStyle=1" vertex="1" parent="1">
                    <mxGeometry x="1500" y="220" width="90" height="30" as="geometry"/>
                </mxCell>
                <mxCell id="E6y0boajHcAVDFcBQ8BV-20" value=".exec/.out" style="text;strokeColor=none;align=center;fillColor=none;html=1;verticalAlign=middle;whiteSpace=wrap;rounded=0;fontSize=30;fontStyle=1" vertex="1" parent="1">
                    <mxGeometry x="1825" y="220" width="160" height="30" as="geometry"/>
                </mxCell>
            </root>
        </mxGraphModel>
    </diagram>
    <diagram id="3bdaPksIy8xb_0GCD3SN" name="Page-1">
        <mxGraphModel dx="2433" dy="1078" grid="1" gridSize="10" guides="1" tooltips="1" connect="1" arrows="1" fold="1" page="1" pageScale="1" pageWidth="1169" pageHeight="827" math="0" shadow="0">
            <root>
                <mxCell id="0"/>
                <mxCell id="1" parent="0"/>
                <mxCell id="4" value="&lt;div style=&quot;color: rgb(59, 59, 59); background-color: rgb(255, 255, 255); font-family: Menlo, Monaco, &amp;quot;Courier New&amp;quot;, monospace, Menlo, Monaco, &amp;quot;Courier New&amp;quot;, monospace; font-size: 33px; line-height: 21px;&quot;&gt;drwxr-xr-x  4 utkarshsingh  staff   128 Sep 28 03:43 test&lt;/div&gt;" style="text;strokeColor=none;align=center;fillColor=none;html=1;verticalAlign=middle;whiteSpace=wrap;rounded=0;fontSize=33;fontStyle=1" vertex="1" parent="1">
                    <mxGeometry x="15" y="380" width="1140" height="30" as="geometry"/>
                </mxCell>
                <mxCell id="nsN2WCOBxkiQtpXOPayS-12" style="edgeStyle=orthogonalEdgeStyle;html=1;entryX=0.044;entryY=-0.047;entryDx=0;entryDy=0;entryPerimeter=0;fontSize=33;curved=1;" edge="1" parent="1" source="5" target="4">
                    <mxGeometry relative="1" as="geometry"/>
                </mxCell>
                <mxCell id="5" value="type" style="text;strokeColor=none;align=center;fillColor=none;html=1;verticalAlign=middle;whiteSpace=wrap;rounded=0;fontSize=33;fontStyle=1" vertex="1" parent="1">
                    <mxGeometry x="-10" y="290" width="100" height="30" as="geometry"/>
                </mxCell>
                <mxCell id="nsN2WCOBxkiQtpXOPayS-15" style="edgeStyle=orthogonalEdgeStyle;curved=1;html=1;entryX=0.364;entryY=-0.027;entryDx=0;entryDy=0;entryPerimeter=0;fontSize=33;" edge="1" parent="1" source="6" target="4">
                    <mxGeometry relative="1" as="geometry"/>
                </mxCell>
                <mxCell id="6" value="username/owner" style="text;strokeColor=none;align=center;fillColor=none;html=1;verticalAlign=middle;whiteSpace=wrap;rounded=0;fontSize=33;fontStyle=1" vertex="1" parent="1">
                    <mxGeometry x="330" y="310" width="200" height="30" as="geometry"/>
                </mxCell>
                <mxCell id="nsN2WCOBxkiQtpXOPayS-14" style="edgeStyle=orthogonalEdgeStyle;curved=1;html=1;fontSize=33;" edge="1" parent="1" source="7">
                    <mxGeometry relative="1" as="geometry">
                        <mxPoint x="185" y="420" as="targetPoint"/>
                    </mxGeometry>
                </mxCell>
                <mxCell id="7" value="permission" style="text;strokeColor=none;align=center;fillColor=none;html=1;verticalAlign=middle;whiteSpace=wrap;rounded=0;fontSize=33;fontStyle=1" vertex="1" parent="1">
                    <mxGeometry x="90" y="490" width="190" height="30" as="geometry"/>
                </mxCell>
                <mxCell id="nsN2WCOBxkiQtpXOPayS-16" style="edgeStyle=orthogonalEdgeStyle;curved=1;html=1;entryX=0.54;entryY=1.009;entryDx=0;entryDy=0;entryPerimeter=0;fontSize=33;" edge="1" parent="1" source="9" target="4">
                    <mxGeometry relative="1" as="geometry"/>
                </mxCell>
                <mxCell id="9" value="group" style="text;strokeColor=none;align=center;fillColor=none;html=1;verticalAlign=middle;whiteSpace=wrap;rounded=0;fontSize=33;fontStyle=1" vertex="1" parent="1">
                    <mxGeometry x="570" y="490" width="120" height="30" as="geometry"/>
                </mxCell>
                <mxCell id="nsN2WCOBxkiQtpXOPayS-17" style="edgeStyle=orthogonalEdgeStyle;curved=1;html=1;entryX=0.622;entryY=-0.066;entryDx=0;entryDy=0;entryPerimeter=0;fontSize=33;" edge="1" parent="1" source="10" target="4">
                    <mxGeometry relative="1" as="geometry"/>
                </mxCell>
                <mxCell id="10" value="size" style="text;strokeColor=none;align=center;fillColor=none;html=1;verticalAlign=middle;whiteSpace=wrap;rounded=0;fontSize=33;fontStyle=1" vertex="1" parent="1">
                    <mxGeometry x="680" y="310" width="90" height="30" as="geometry"/>
                </mxCell>
                <mxCell id="nsN2WCOBxkiQtpXOPayS-18" style="edgeStyle=orthogonalEdgeStyle;curved=1;html=1;fontSize=33;" edge="1" parent="1" source="11">
                    <mxGeometry relative="1" as="geometry">
                        <mxPoint x="890" y="420" as="targetPoint"/>
                    </mxGeometry>
                </mxCell>
                <mxCell id="11" value="timestamp" style="text;strokeColor=none;align=center;fillColor=none;html=1;verticalAlign=middle;whiteSpace=wrap;rounded=0;fontSize=33;fontStyle=1" vertex="1" parent="1">
                    <mxGeometry x="800" y="490" width="180" height="30" as="geometry"/>
                </mxCell>
                <mxCell id="nsN2WCOBxkiQtpXOPayS-19" style="edgeStyle=orthogonalEdgeStyle;curved=1;html=1;entryX=0.959;entryY=-0.112;entryDx=0;entryDy=0;entryPerimeter=0;fontSize=33;" edge="1" parent="1" source="12" target="4">
                    <mxGeometry relative="1" as="geometry"/>
                </mxCell>
                <mxCell id="12" value="name" style="text;strokeColor=none;align=center;fillColor=none;html=1;verticalAlign=middle;whiteSpace=wrap;rounded=0;fontSize=33;fontStyle=1" vertex="1" parent="1">
                    <mxGeometry x="1030" y="310" width="100" height="30" as="geometry"/>
                </mxCell>
            </root>
        </mxGraphModel>
    </diagram>
</mxfile>